<svg width="94" height="94" viewBox="0 0 94 94" fill="none" xmlns="http://www.w3.org/2000/svg">
<g opacity="0.2">
<path d="M62.6666 49.9375H31.3333C29.7275 49.9375 28.3958 48.6058 28.3958 47C28.3958 45.3942 29.7275 44.0625 31.3333 44.0625H62.6666C64.2725 44.0625 65.6041 45.3942 65.6041 47C65.6041 48.6058 64.2725 49.9375 62.6666 49.9375Z" fill="white"/>
<path d="M47 65.6042C45.3942 65.6042 44.0625 64.2725 44.0625 62.6667V31.3333C44.0625 29.7275 45.3942 28.3958 47 28.3958C48.6058 28.3958 49.9375 29.7275 49.9375 31.3333V62.6667C49.9375 64.2725 48.6058 65.6042 47 65.6042Z" fill="white"/>
<path d="M58.75 89.1042H35.25C13.9825 89.1042 4.89581 80.0175 4.89581 58.75V35.25C4.89581 13.9825 13.9825 4.89584 35.25 4.89584H58.75C80.0175 4.89584 89.1041 13.9825 89.1041 35.25V58.75C89.1041 80.0175 80.0175 89.1042 58.75 89.1042ZM35.25 10.7708C17.1941 10.7708 10.7708 17.1942 10.7708 35.25V58.75C10.7708 76.8058 17.1941 83.2292 35.25 83.2292H58.75C76.8058 83.2292 83.2291 76.8058 83.2291 58.75V35.25C83.2291 17.1942 76.8058 10.7708 58.75 10.7708H35.25Z" fill="white"/>
</g>
</svg>
