<svg width="22" height="24" viewBox="0 0 22 24" fill="none" xmlns="http://www.w3.org/2000/svg">
<mask id="path-1-outside-1_749_353" maskUnits="userSpaceOnUse" x="0" y="0" width="22" height="24" fill="black">
<rect fill="white" width="22" height="24"/>
<path fill-rule="evenodd" clip-rule="evenodd" d="M15.0801 4.18723H14.8241C14.8241 2.42721 13.4161 1 11.6241 1H9.57608C7.78407 1 6.37605 2.42721 6.37605 4.18723H5.60804H5.22404H2.15201C1.512 4.18723 1 4.6634 1 5.24964C1 5.83717 1.512 6.31205 2.15201 6.31205H3.17602V19.0623C3.17602 20.8223 4.58403 22.2495 6.37605 22.2495H14.8241C16.6162 22.2495 18.0242 20.8223 18.0242 19.0623V6.31205H19.0482C19.6882 6.31205 20.2002 5.83717 20.2002 5.24964C20.2002 4.6634 19.6882 4.18723 19.0482 4.18723H15.9761H15.8481H15.0801ZM15.8478 6.31206H13.7998H12.7758H8.42374H7.39973H5.22371V8.43688V19.0623C5.22371 19.6485 5.73571 20.1247 6.37572 20.1247H14.8238C15.4638 20.1247 15.8478 19.6485 15.8478 19.0623V8.43688V6.31206ZM8.42383 4.18726H9.57584H10.5998H11.6239H12.7759C12.7759 3.60101 12.2639 3.12485 11.6239 3.12485H9.57584C8.93583 3.12485 8.42383 3.60101 8.42383 4.18726ZM8.42398 8.4369C9.06399 8.4369 9.57599 8.91306 9.57599 9.49931V16.9375C9.57599 17.5237 9.06399 17.9999 8.42398 17.9999C7.91198 17.9999 7.39997 17.5237 7.39997 16.9375V9.49931C7.39997 8.91306 7.91198 8.4369 8.42398 8.4369ZM13.8 9.49931C13.8 8.91306 13.288 8.4369 12.776 8.4369C12.136 8.4369 11.6239 8.91306 11.6239 9.49931V16.9375C11.6239 17.5237 12.136 17.9999 12.776 17.9999C13.288 17.9999 13.8 17.5237 13.8 16.9375V9.49931Z"/>
</mask>
<path fill-rule="evenodd" clip-rule="evenodd" d="M15.0801 4.18723H14.8241C14.8241 2.42721 13.4161 1 11.6241 1H9.57608C7.78407 1 6.37605 2.42721 6.37605 4.18723H5.60804H5.22404H2.15201C1.512 4.18723 1 4.6634 1 5.24964C1 5.83717 1.512 6.31205 2.15201 6.31205H3.17602V19.0623C3.17602 20.8223 4.58403 22.2495 6.37605 22.2495H14.8241C16.6162 22.2495 18.0242 20.8223 18.0242 19.0623V6.31205H19.0482C19.6882 6.31205 20.2002 5.83717 20.2002 5.24964C20.2002 4.6634 19.6882 4.18723 19.0482 4.18723H15.9761H15.8481H15.0801ZM15.8478 6.31206H13.7998H12.7758H8.42374H7.39973H5.22371V8.43688V19.0623C5.22371 19.6485 5.73571 20.1247 6.37572 20.1247H14.8238C15.4638 20.1247 15.8478 19.6485 15.8478 19.0623V8.43688V6.31206ZM8.42383 4.18726H9.57584H10.5998H11.6239H12.7759C12.7759 3.60101 12.2639 3.12485 11.6239 3.12485H9.57584C8.93583 3.12485 8.42383 3.60101 8.42383 4.18726ZM8.42398 8.4369C9.06399 8.4369 9.57599 8.91306 9.57599 9.49931V16.9375C9.57599 17.5237 9.06399 17.9999 8.42398 17.9999C7.91198 17.9999 7.39997 17.5237 7.39997 16.9375V9.49931C7.39997 8.91306 7.91198 8.4369 8.42398 8.4369ZM13.8 9.49931C13.8 8.91306 13.288 8.4369 12.776 8.4369C12.136 8.4369 11.6239 8.91306 11.6239 9.49931V16.9375C11.6239 17.5237 12.136 17.9999 12.776 17.9999C13.288 17.9999 13.8 17.5237 13.8 16.9375V9.49931Z" fill="white" fill-opacity="0.5"/>
<path d="M14.8241 4.18723H13.8241V5.18723H14.8241V4.18723ZM6.37605 4.18723V5.18723H7.37605V4.18723H6.37605ZM3.17602 6.31205H4.17602V5.31205H3.17602V6.31205ZM18.0242 6.31205V5.31205H17.0242V6.31205H18.0242ZM15.8478 6.31206H16.8478V5.31206H15.8478V6.31206ZM5.22371 6.31206V5.31206H4.22371V6.31206H5.22371ZM8.42383 4.18726H7.42383V5.18726H8.42383V4.18726ZM12.7759 4.18726V5.18726H13.7759V4.18726H12.7759ZM15.0801 3.18723H14.8241V5.18723H15.0801V3.18723ZM15.8241 4.18723C15.8241 1.87624 13.9697 0 11.6241 0V2C12.8625 2 13.8241 2.97819 13.8241 4.18723H15.8241ZM11.6241 0H9.57608V2H11.6241V0ZM9.57608 0C7.23047 0 5.37605 1.87624 5.37605 4.18723H7.37605C7.37605 2.97819 8.33766 2 9.57608 2V0ZM6.37605 3.18723H5.60804V5.18723H6.37605V3.18723ZM5.60804 3.18723H5.22404V5.18723H5.60804V3.18723ZM5.22404 3.18723H2.15201V5.18723H5.22404V3.18723ZM2.15201 3.18723C1.03497 3.18723 0 4.03875 0 5.24964H2C2 5.24941 2 5.25007 1.99977 5.25111C1.99956 5.25207 1.99939 5.25226 1.99973 5.25152C2.00042 5.25002 2.00412 5.24279 2.01489 5.23283C2.03664 5.21273 2.08168 5.18723 2.15201 5.18723V3.18723ZM0 5.24964C0 6.46256 1.03578 7.31205 2.15201 7.31205V5.31205C2.08094 5.31205 2.03593 5.28636 2.01459 5.26665C2.00401 5.25688 2.00044 5.24985 1.9998 5.24846C1.99949 5.24777 1.99964 5.24794 1.99983 5.2488C2.00003 5.24974 2 5.25019 2 5.24964H0ZM2.15201 7.31205H3.17602V5.31205H2.15201V7.31205ZM2.17602 6.31205V19.0623H4.17602V6.31205H2.17602ZM2.17602 19.0623C2.17602 21.3732 4.03044 23.2495 6.37605 23.2495V21.2495C5.13763 21.2495 4.17602 20.2713 4.17602 19.0623H2.17602ZM6.37605 23.2495H14.8241V21.2495H6.37605V23.2495ZM14.8241 23.2495C17.1697 23.2495 19.0242 21.3732 19.0242 19.0623H17.0242C17.0242 20.2713 16.0626 21.2495 14.8241 21.2495V23.2495ZM19.0242 19.0623V6.31205H17.0242V19.0623H19.0242ZM18.0242 7.31205H19.0482V5.31205H18.0242V7.31205ZM19.0482 7.31205C20.1644 7.31205 21.2002 6.46256 21.2002 5.24964H19.2002C19.2002 5.25019 19.2002 5.24974 19.2004 5.2488C19.2005 5.24794 19.2007 5.24777 19.2004 5.24846C19.1997 5.24985 19.1962 5.25688 19.1856 5.26665C19.1643 5.28636 19.1193 5.31205 19.0482 5.31205V7.31205ZM21.2002 5.24964C21.2002 4.03876 20.1652 3.18723 19.0482 3.18723V5.18723C19.1185 5.18723 19.1635 5.21273 19.1853 5.23283C19.1961 5.24279 19.1998 5.25002 19.2005 5.25152C19.2008 5.25226 19.2006 5.25207 19.2004 5.25111C19.2002 5.25007 19.2002 5.24941 19.2002 5.24964H21.2002ZM19.0482 3.18723H15.9761V5.18723H19.0482V3.18723ZM15.9761 3.18723H15.8481V5.18723H15.9761V3.18723ZM15.8481 3.18723H15.0801V5.18723H15.8481V3.18723ZM15.8478 5.31206H13.7998V7.31206H15.8478V5.31206ZM13.7998 5.31206H12.7758V7.31206H13.7998V5.31206ZM12.7758 5.31206H8.42374V7.31206H12.7758V5.31206ZM8.42374 5.31206H7.39973V7.31206H8.42374V5.31206ZM7.39973 5.31206H5.22371V7.31206H7.39973V5.31206ZM4.22371 6.31206V8.43688H6.22371V6.31206H4.22371ZM4.22371 8.43688V19.0623H6.22371V8.43688H4.22371ZM4.22371 19.0623C4.22371 20.2731 5.25867 21.1247 6.37572 21.1247V19.1247C6.30539 19.1247 6.26035 19.0992 6.2386 19.0791C6.22783 19.0691 6.22412 19.0619 6.22344 19.0604C6.2231 19.0596 6.22326 19.0598 6.22348 19.0608C6.2237 19.0618 6.22371 19.0625 6.22371 19.0623H4.22371ZM6.37572 21.1247H14.8238V19.1247H6.37572V21.1247ZM14.8238 21.1247C15.4077 21.1247 15.9371 20.8997 16.3135 20.4884C16.68 20.0879 16.8478 19.571 16.8478 19.0623H14.8478C14.8478 19.1397 14.8236 19.154 14.8381 19.1382C14.8451 19.1305 14.8543 19.1243 14.8611 19.1214C14.8677 19.1186 14.8583 19.1247 14.8238 19.1247V21.1247ZM16.8478 19.0623V8.43688H14.8478V19.0623H16.8478ZM16.8478 8.43688V6.31206H14.8478V8.43688H16.8478ZM8.42383 5.18726H9.57584V3.18726H8.42383V5.18726ZM9.57584 5.18726H10.5998V3.18726H9.57584V5.18726ZM10.5998 5.18726H11.6239V3.18726H10.5998V5.18726ZM11.6239 5.18726H12.7759V3.18726H11.6239V5.18726ZM13.7759 4.18726C13.7759 2.97637 12.7409 2.12484 11.6239 2.12484V4.12485C11.6942 4.12485 11.7392 4.15034 11.761 4.17045C11.7717 4.18041 11.7755 4.18763 11.7761 4.18914C11.7765 4.18987 11.7763 4.18968 11.7761 4.18872C11.7759 4.18768 11.7759 4.18702 11.7759 4.18726H13.7759ZM11.6239 2.12484H9.57584V4.12485H11.6239V2.12484ZM9.57584 2.12484C8.45879 2.12484 7.42383 2.97637 7.42383 4.18726H9.42383C9.42383 4.18702 9.42383 4.18768 9.4236 4.18872C9.42338 4.18968 9.42322 4.18987 9.42356 4.18914C9.42424 4.18763 9.42795 4.18041 9.43872 4.17045C9.46047 4.15034 9.50551 4.12485 9.57584 4.12485V2.12484ZM8.42398 9.4369C8.49431 9.4369 8.53935 9.46239 8.5611 9.4825C8.57187 9.49246 8.57558 9.49968 8.57626 9.50119C8.5766 9.50193 8.57644 9.50173 8.57622 9.50078C8.576 9.49974 8.57599 9.49907 8.57599 9.49931H10.576C10.576 8.28842 9.54103 7.4369 8.42398 7.4369V9.4369ZM8.57599 9.49931V16.9375H10.576V9.49931H8.57599ZM8.57599 16.9375C8.57599 16.9377 8.576 16.937 8.57622 16.936C8.57644 16.935 8.5766 16.9348 8.57626 16.9356C8.57558 16.9371 8.57187 16.9443 8.5611 16.9543C8.53935 16.9744 8.49431 16.9999 8.42398 16.9999V18.9999C9.54103 18.9999 10.576 18.1483 10.576 16.9375H8.57599ZM8.42398 16.9999C8.45087 16.9999 8.4617 17.0059 8.45708 17.0038C8.45234 17.0017 8.44069 16.995 8.42767 16.982C8.41493 16.9692 8.40702 16.9565 8.40306 16.9475C8.40124 16.9434 8.40051 16.9407 8.40023 16.9394C8.39997 16.9382 8.39997 16.9377 8.39997 16.9375H6.39997C6.39997 18.0744 7.35812 18.9999 8.42398 18.9999V16.9999ZM8.39997 16.9375V9.49931H6.39997V16.9375H8.39997ZM8.39997 9.49931C8.39997 9.49906 8.39997 9.49858 8.40023 9.49741C8.40051 9.49611 8.40124 9.49337 8.40306 9.48923C8.40702 9.48027 8.41493 9.46755 8.42767 9.45478C8.44069 9.44174 8.45234 9.43507 8.45708 9.43295C8.4617 9.43088 8.45087 9.4369 8.42398 9.4369V7.4369C7.35812 7.4369 6.39997 8.36235 6.39997 9.49931H8.39997ZM14.8 9.49931C14.8 8.36235 13.8418 7.4369 12.776 7.4369V9.4369C12.7491 9.4369 12.7382 9.43088 12.7429 9.43295C12.7476 9.43507 12.7593 9.44174 12.7723 9.45478C12.785 9.46755 12.7929 9.48027 12.7969 9.48923C12.7987 9.49337 12.7994 9.49611 12.7997 9.49741C12.8 9.49858 12.8 9.49906 12.8 9.49931H14.8ZM12.776 7.4369C11.6589 7.4369 10.6239 8.28842 10.6239 9.49931H12.6239C12.6239 9.49907 12.6239 9.49974 12.6237 9.50078C12.6235 9.50173 12.6233 9.50193 12.6237 9.50119C12.6244 9.49968 12.6281 9.49246 12.6388 9.4825C12.6606 9.46239 12.7056 9.4369 12.776 9.4369V7.4369ZM10.6239 9.49931V16.9375H12.6239V9.49931H10.6239ZM10.6239 16.9375C10.6239 18.1483 11.6589 18.9999 12.776 18.9999V16.9999C12.7056 16.9999 12.6606 16.9744 12.6388 16.9543C12.6281 16.9443 12.6244 16.9371 12.6237 16.9356C12.6233 16.9348 12.6235 16.935 12.6237 16.936C12.6239 16.937 12.6239 16.9377 12.6239 16.9375H10.6239ZM12.776 18.9999C13.8418 18.9999 14.8 18.0744 14.8 16.9375H12.8C12.8 16.9377 12.8 16.9382 12.7997 16.9394C12.7994 16.9407 12.7987 16.9434 12.7969 16.9475C12.7929 16.9565 12.785 16.9692 12.7723 16.982C12.7593 16.995 12.7476 17.0017 12.7429 17.0038C12.7382 17.0059 12.7491 16.9999 12.776 16.9999V18.9999ZM14.8 16.9375V9.49931H12.8V16.9375H14.8Z" fill="black" fill-opacity="0.5" mask="url(#path-1-outside-1_749_353)"/>
</svg>
