<svg width="19" height="19" viewBox="0 0 19 19" fill="none" xmlns="http://www.w3.org/2000/svg">
<path d="M7.96875 10.375C7.96875 10.9788 7.47875 11.4688 6.875 11.4688C6.27125 11.4688 5.78125 10.9788 5.78125 10.375C5.78125 9.77125 6.27125 9.28125 6.875 9.28125C7.47875 9.28125 7.96875 9.77125 7.96875 10.375ZM12.125 9.28125C11.5212 9.28125 11.0312 9.77125 11.0312 10.375C11.0312 10.9788 11.5212 11.4688 12.125 11.4688C12.7288 11.4688 13.2188 10.9788 13.2188 10.375C13.2188 9.77125 12.7288 9.28125 12.125 9.28125ZM18.25 9.5C18.25 14.33 14.33 18.25 9.5 18.25C4.67 18.25 0.75 14.33 0.75 9.5C0.75 4.67 4.67 0.75 9.5 0.75C14.33 0.75 18.25 4.67 18.25 9.5ZM8.3275 2.605C9.5525 4.635 11.775 6 14.3125 6C14.715 6 15.1088 5.95625 15.485 5.895C14.26 3.865 12.0375 2.5 9.5 2.5C9.0975 2.5 8.70375 2.54375 8.3275 2.605ZM2.8675 7.28625C4.36375 6.4375 5.51875 5.055 6.07 3.40125C4.57375 4.25 3.41875 5.6325 2.8675 7.28625ZM16.5 9.5C16.5 8.8175 16.395 8.16125 16.2113 7.54C15.5988 7.67125 14.9688 7.75 14.3125 7.75C11.5737 7.75 9.1325 6.49 7.5225 4.52125C6.60375 6.76125 4.775 8.52 2.5 9.3775C2.50875 9.4125 2.5 9.45625 2.5 9.5C2.5 13.3587 5.64125 16.5 9.5 16.5C13.3587 16.5 16.5 13.3587 16.5 9.5Z" fill="#FF194C"/>
</svg>
