<svg width="19" height="19" viewBox="0 0 19 19" fill="none" xmlns="http://www.w3.org/2000/svg">
<path d="M9.5 0.75C4.67 0.75 0.75 4.67 0.75 9.5C0.75 14.33 4.67 18.25 9.5 18.25C14.33 18.25 18.25 14.33 18.25 9.5C18.25 4.67 14.33 0.75 9.5 0.75ZM9.5 2.5C12.0375 2.5 14.26 3.865 15.485 5.895C15.1088 5.95625 14.715 6 14.3125 6C11.775 6 9.5525 4.635 8.3275 2.605C8.70375 2.54375 9.0975 2.5 9.5 2.5ZM6.07 3.40125C5.51875 5.055 4.36375 6.4375 2.8675 7.28625C3.41875 5.6325 4.57375 4.25 6.07 3.40125ZM9.5 16.5C5.64125 16.5 2.5 13.3587 2.5 9.5C2.5 9.45625 2.50875 9.4125 2.50875 9.36875C4.78375 8.51125 6.60375 6.7525 7.53125 4.5125C9.1325 6.49 11.5737 7.75 14.3125 7.75C14.9688 7.75 15.5988 7.67125 16.2113 7.54C16.395 8.16125 16.5 8.8175 16.5 9.5C16.5 13.3587 13.3587 16.5 9.5 16.5Z" fill="#616161"/>
</svg>
