<svg width="15" height="15" viewBox="0 0 15 15" fill="none" xmlns="http://www.w3.org/2000/svg">
<path d="M6.79167 3.95833H8.20833V5.375H6.79167V3.95833ZM6.79167 6.79167H8.20833V11.0417H6.79167V6.79167ZM7.5 0.416668C3.59 0.416668 0.416668 3.59 0.416668 7.5C0.416668 11.41 3.59 14.5833 7.5 14.5833C11.41 14.5833 14.5833 11.41 14.5833 7.5C14.5833 3.59 11.41 0.416668 7.5 0.416668ZM7.5 13.1667C4.37625 13.1667 1.83333 10.6238 1.83333 7.5C1.83333 4.37625 4.37625 1.83333 7.5 1.83333C10.6238 1.83333 13.1667 4.37625 13.1667 7.5C13.1667 10.6238 10.6238 13.1667 7.5 13.1667Z" fill="#FFB800"/>
</svg>
